# MagicaVoxel @ Ephtracy

# material
mtllib Simple Building.mtl
usemtl palette

# normals
vn -1 0 0
vn 1 0 0
vn 0 0 1
vn 0 0 -1
vn 0 -1 0
vn 0 1 0

# texcoords
vt 0.712891 0.5
vt 0.919922 0.5
vt 0.943359 0.5
vt 0.955078 0.5
vt 0.978516 0.5

# verts
v -10 0 10
v -10 0 -10
v -10 2 9
v -10 2 7
v -10 2 5
v -10 2 3
v -10 2 1
v -10 2 -1
v -10 2 -3
v -10 2 -5
v -10 2 -7
v -10 2 -9
v -10 3 9
v -10 3 7
v -10 3 5
v -10 3 3
v -10 3 1
v -10 3 -1
v -10 3 -3
v -10 3 -5
v -10 3 -7
v -10 3 -9
v -10 5 9
v -10 5 7
v -10 5 5
v -10 5 3
v -10 5 1
v -10 5 -1
v -10 5 -3
v -10 5 -5
v -10 5 -7
v -10 5 -9
v -10 8 9
v -10 8 7
v -10 8 5
v -10 8 3
v -10 8 1
v -10 8 -1
v -10 8 -3
v -10 8 -5
v -10 8 -7
v -10 8 -9
v -10 9 9
v -10 9 7
v -10 9 5
v -10 9 3
v -10 9 1
v -10 9 -1
v -10 9 -3
v -10 9 -5
v -10 9 -7
v -10 9 -9
v -10 11 9
v -10 11 7
v -10 11 5
v -10 11 3
v -10 11 1
v -10 11 -1
v -10 11 -3
v -10 11 -5
v -10 11 -7
v -10 11 -9
v -10 14 9
v -10 14 7
v -10 14 5
v -10 14 3
v -10 14 1
v -10 14 -1
v -10 14 -3
v -10 14 -5
v -10 14 -7
v -10 14 -9
v -10 15 9
v -10 15 7
v -10 15 5
v -10 15 3
v -10 15 1
v -10 15 -1
v -10 15 -3
v -10 15 -5
v -10 15 -7
v -10 15 -9
v -10 17 9
v -10 17 7
v -10 17 5
v -10 17 3
v -10 17 1
v -10 17 -1
v -10 17 -3
v -10 17 -5
v -10 17 -7
v -10 17 -9
v -10 20 10
v -10 20 -10
v 10 0 10
v 10 0 2
v 10 0 -2
v 10 0 -10
v 10 2 9
v 10 2 7
v 10 2 5
v 10 2 3
v 10 2 -3
v 10 2 -5
v 10 2 -7
v 10 2 -9
v 10 3 9
v 10 3 7
v 10 3 5
v 10 3 3
v 10 3 -3
v 10 3 -5
v 10 3 -7
v 10 3 -9
v 10 4 2
v 10 4 -2
v 10 5 9
v 10 5 7
v 10 5 5
v 10 5 3
v 10 5 2
v 10 5 -2
v 10 5 -3
v 10 5 -5
v 10 5 -7
v 10 5 -9
v 10 8 9
v 10 8 7
v 10 8 5
v 10 8 3
v 10 8 1
v 10 8 -1
v 10 8 -3
v 10 8 -5
v 10 8 -7
v 10 8 -9
v 10 9 9
v 10 9 7
v 10 9 5
v 10 9 3
v 10 9 1
v 10 9 -1
v 10 9 -3
v 10 9 -5
v 10 9 -7
v 10 9 -9
v 10 11 9
v 10 11 7
v 10 11 5
v 10 11 3
v 10 11 1
v 10 11 -1
v 10 11 -3
v 10 11 -5
v 10 11 -7
v 10 11 -9
v 10 14 9
v 10 14 7
v 10 14 5
v 10 14 3
v 10 14 1
v 10 14 -1
v 10 14 -3
v 10 14 -5
v 10 14 -7
v 10 14 -9
v 10 15 9
v 10 15 7
v 10 15 5
v 10 15 3
v 10 15 1
v 10 15 -1
v 10 15 -3
v 10 15 -5
v 10 15 -7
v 10 15 -9
v 10 17 9
v 10 17 7
v 10 17 5
v 10 17 3
v 10 17 1
v 10 17 -1
v 10 17 -3
v 10 17 -5
v 10 17 -7
v 10 17 -9
v 10 20 10
v 10 20 -10
v -10 0 10
v -10 20 10
v -9 2 10
v -9 3 10
v -9 5 10
v -9 8 10
v -9 9 10
v -9 11 10
v -9 14 10
v -9 15 10
v -9 17 10
v -7 2 10
v -7 3 10
v -7 5 10
v -7 8 10
v -7 9 10
v -7 11 10
v -7 14 10
v -7 15 10
v -7 17 10
v -5 2 10
v -5 3 10
v -5 5 10
v -5 8 10
v -5 9 10
v -5 11 10
v -5 14 10
v -5 15 10
v -5 17 10
v -3 2 10
v -3 3 10
v -3 5 10
v -3 8 10
v -3 9 10
v -3 11 10
v -3 14 10
v -3 15 10
v -3 17 10
v -1 2 10
v -1 3 10
v -1 5 10
v -1 8 10
v -1 9 10
v -1 11 10
v -1 14 10
v -1 15 10
v -1 17 10
v 1 2 10
v 1 3 10
v 1 5 10
v 1 8 10
v 1 9 10
v 1 11 10
v 1 14 10
v 1 15 10
v 1 17 10
v 3 2 10
v 3 3 10
v 3 5 10
v 3 8 10
v 3 9 10
v 3 11 10
v 3 14 10
v 3 15 10
v 3 17 10
v 5 2 10
v 5 3 10
v 5 5 10
v 5 8 10
v 5 9 10
v 5 11 10
v 5 14 10
v 5 15 10
v 5 17 10
v 7 2 10
v 7 3 10
v 7 5 10
v 7 8 10
v 7 9 10
v 7 11 10
v 7 14 10
v 7 15 10
v 7 17 10
v 9 2 10
v 9 3 10
v 9 5 10
v 9 8 10
v 9 9 10
v 9 11 10
v 9 14 10
v 9 15 10
v 9 17 10
v 10 0 10
v 10 20 10
v -10 0 -10
v -10 20 -10
v -9 2 -10
v -9 3 -10
v -9 5 -10
v -9 8 -10
v -9 9 -10
v -9 11 -10
v -9 14 -10
v -9 15 -10
v -9 17 -10
v -7 2 -10
v -7 3 -10
v -7 5 -10
v -7 8 -10
v -7 9 -10
v -7 11 -10
v -7 14 -10
v -7 15 -10
v -7 17 -10
v -5 2 -10
v -5 3 -10
v -5 5 -10
v -5 8 -10
v -5 9 -10
v -5 11 -10
v -5 14 -10
v -5 15 -10
v -5 17 -10
v -3 2 -10
v -3 3 -10
v -3 5 -10
v -3 8 -10
v -3 9 -10
v -3 11 -10
v -3 14 -10
v -3 15 -10
v -3 17 -10
v -1 2 -10
v -1 3 -10
v -1 5 -10
v -1 8 -10
v -1 9 -10
v -1 11 -10
v -1 14 -10
v -1 15 -10
v -1 17 -10
v 1 2 -10
v 1 3 -10
v 1 5 -10
v 1 8 -10
v 1 9 -10
v 1 11 -10
v 1 14 -10
v 1 15 -10
v 1 17 -10
v 3 2 -10
v 3 3 -10
v 3 5 -10
v 3 8 -10
v 3 9 -10
v 3 11 -10
v 3 14 -10
v 3 15 -10
v 3 17 -10
v 5 2 -10
v 5 3 -10
v 5 5 -10
v 5 8 -10
v 5 9 -10
v 5 11 -10
v 5 14 -10
v 5 15 -10
v 5 17 -10
v 7 2 -10
v 7 3 -10
v 7 5 -10
v 7 8 -10
v 7 9 -10
v 7 11 -10
v 7 14 -10
v 7 15 -10
v 7 17 -10
v 9 2 -10
v 9 3 -10
v 9 5 -10
v 9 8 -10
v 9 9 -10
v 9 11 -10
v 9 14 -10
v 9 15 -10
v 9 17 -10
v 10 0 -10
v 10 20 -10
v -10 0 10
v 10 0 10
v 9 0 2
v 10 0 2
v 9 0 -2
v 10 0 -2
v -10 0 -10
v 10 0 -10
v -10 20 10
v 10 20 10
v -10 20 -10
v 10 20 -10

# faces
f 3/1/1 2/1/1 1/1/1
f 4/1/1 2/1/1 3/1/1
f 5/1/1 2/1/1 4/1/1
f 6/1/1 2/1/1 5/1/1
f 7/1/1 2/1/1 6/1/1
f 8/1/1 2/1/1 7/1/1
f 9/1/1 2/1/1 8/1/1
f 10/1/1 2/1/1 9/1/1
f 11/1/1 2/1/1 10/1/1
f 12/1/1 2/1/1 11/1/1
f 13/1/1 3/1/1 1/1/1
f 13/5/1 4/5/1 3/5/1
f 14/1/1 5/1/1 4/1/1
f 14/5/1 4/5/1 13/5/1
f 15/5/1 6/5/1 5/5/1
f 15/1/1 5/1/1 14/1/1
f 16/1/1 7/1/1 6/1/1
f 16/5/1 6/5/1 15/5/1
f 17/5/1 8/5/1 7/5/1
f 17/1/1 7/1/1 16/1/1
f 18/1/1 9/1/1 8/1/1
f 18/5/1 8/5/1 17/5/1
f 19/5/1 10/5/1 9/5/1
f 19/1/1 9/1/1 18/1/1
f 20/1/1 11/1/1 10/1/1
f 20/5/1 10/5/1 19/5/1
f 21/5/1 12/5/1 11/5/1
f 21/1/1 11/1/1 20/1/1
f 22/1/1 2/1/1 12/1/1
f 22/5/1 12/5/1 21/5/1
f 23/1/1 13/1/1 1/1/1
f 23/2/1 14/2/1 13/2/1
f 24/1/1 15/1/1 14/1/1
f 24/2/1 14/2/1 23/2/1
f 25/2/1 16/2/1 15/2/1
f 25/1/1 15/1/1 24/1/1
f 26/1/1 17/1/1 16/1/1
f 26/2/1 16/2/1 25/2/1
f 27/2/1 18/2/1 17/2/1
f 27/1/1 17/1/1 26/1/1
f 28/1/1 19/1/1 18/1/1
f 28/2/1 18/2/1 27/2/1
f 29/2/1 20/2/1 19/2/1
f 29/1/1 19/1/1 28/1/1
f 30/1/1 21/1/1 20/1/1
f 30/2/1 20/2/1 29/2/1
f 31/2/1 22/2/1 21/2/1
f 31/1/1 21/1/1 30/1/1
f 32/1/1 2/1/1 22/1/1
f 32/2/1 22/2/1 31/2/1
f 33/1/1 29/1/1 28/1/1
f 33/1/1 28/1/1 27/1/1
f 33/1/1 32/1/1 31/1/1
f 33/1/1 27/1/1 26/1/1
f 33/1/1 26/1/1 25/1/1
f 33/1/1 25/1/1 24/1/1
f 33/1/1 24/1/1 23/1/1
f 33/1/1 23/1/1 1/1/1
f 33/1/1 30/1/1 29/1/1
f 33/1/1 31/1/1 30/1/1
f 34/1/1 32/1/1 33/1/1
f 35/1/1 32/1/1 34/1/1
f 36/1/1 32/1/1 35/1/1
f 37/1/1 32/1/1 36/1/1
f 38/1/1 32/1/1 37/1/1
f 39/1/1 32/1/1 38/1/1
f 40/1/1 32/1/1 39/1/1
f 41/1/1 32/1/1 40/1/1
f 42/1/1 2/1/1 32/1/1
f 42/1/1 32/1/1 41/1/1
f 43/1/1 33/1/1 1/1/1
f 43/5/1 34/5/1 33/5/1
f 44/1/1 35/1/1 34/1/1
f 44/5/1 34/5/1 43/5/1
f 45/5/1 36/5/1 35/5/1
f 45/1/1 35/1/1 44/1/1
f 46/1/1 37/1/1 36/1/1
f 46/5/1 36/5/1 45/5/1
f 47/5/1 38/5/1 37/5/1
f 47/1/1 37/1/1 46/1/1
f 48/1/1 39/1/1 38/1/1
f 48/5/1 38/5/1 47/5/1
f 49/5/1 40/5/1 39/5/1
f 49/1/1 39/1/1 48/1/1
f 50/1/1 41/1/1 40/1/1
f 50/5/1 40/5/1 49/5/1
f 51/5/1 42/5/1 41/5/1
f 51/1/1 41/1/1 50/1/1
f 52/1/1 2/1/1 42/1/1
f 52/5/1 42/5/1 51/5/1
f 53/1/1 43/1/1 1/1/1
f 53/2/1 44/2/1 43/2/1
f 54/1/1 45/1/1 44/1/1
f 54/2/1 44/2/1 53/2/1
f 55/2/1 46/2/1 45/2/1
f 55/1/1 45/1/1 54/1/1
f 56/1/1 47/1/1 46/1/1
f 56/2/1 46/2/1 55/2/1
f 57/2/1 48/2/1 47/2/1
f 57/1/1 47/1/1 56/1/1
f 58/1/1 49/1/1 48/1/1
f 58/2/1 48/2/1 57/2/1
f 59/2/1 50/2/1 49/2/1
f 59/1/1 49/1/1 58/1/1
f 60/1/1 51/1/1 50/1/1
f 60/2/1 50/2/1 59/2/1
f 61/2/1 52/2/1 51/2/1
f 61/1/1 51/1/1 60/1/1
f 62/1/1 2/1/1 52/1/1
f 62/2/1 52/2/1 61/2/1
f 63/1/1 57/1/1 56/1/1
f 63/1/1 59/1/1 58/1/1
f 63/1/1 62/1/1 61/1/1
f 63/1/1 56/1/1 55/1/1
f 63/1/1 55/1/1 54/1/1
f 63/1/1 54/1/1 53/1/1
f 63/1/1 53/1/1 1/1/1
f 63/1/1 60/1/1 59/1/1
f 63/1/1 61/1/1 60/1/1
f 63/1/1 58/1/1 57/1/1
f 64/1/1 62/1/1 63/1/1
f 65/1/1 62/1/1 64/1/1
f 66/1/1 62/1/1 65/1/1
f 67/1/1 62/1/1 66/1/1
f 68/1/1 62/1/1 67/1/1
f 69/1/1 62/1/1 68/1/1
f 70/1/1 62/1/1 69/1/1
f 71/1/1 62/1/1 70/1/1
f 72/1/1 2/1/1 62/1/1
f 72/1/1 62/1/1 71/1/1
f 73/1/1 63/1/1 1/1/1
f 73/5/1 64/5/1 63/5/1
f 74/1/1 65/1/1 64/1/1
f 74/5/1 64/5/1 73/5/1
f 75/5/1 66/5/1 65/5/1
f 75/1/1 65/1/1 74/1/1
f 76/1/1 67/1/1 66/1/1
f 76/5/1 66/5/1 75/5/1
f 77/5/1 68/5/1 67/5/1
f 77/1/1 67/1/1 76/1/1
f 78/1/1 69/1/1 68/1/1
f 78/5/1 68/5/1 77/5/1
f 79/5/1 70/5/1 69/5/1
f 79/1/1 69/1/1 78/1/1
f 80/1/1 71/1/1 70/1/1
f 80/5/1 70/5/1 79/5/1
f 81/5/1 72/5/1 71/5/1
f 81/1/1 71/1/1 80/1/1
f 82/1/1 2/1/1 72/1/1
f 82/5/1 72/5/1 81/5/1
f 83/1/1 73/1/1 1/1/1
f 83/2/1 74/2/1 73/2/1
f 84/1/1 75/1/1 74/1/1
f 84/2/1 74/2/1 83/2/1
f 85/2/1 76/2/1 75/2/1
f 85/1/1 75/1/1 84/1/1
f 86/1/1 77/1/1 76/1/1
f 86/2/1 76/2/1 85/2/1
f 87/2/1 78/2/1 77/2/1
f 87/1/1 77/1/1 86/1/1
f 88/1/1 79/1/1 78/1/1
f 88/2/1 78/2/1 87/2/1
f 89/2/1 80/2/1 79/2/1
f 89/1/1 79/1/1 88/1/1
f 90/1/1 81/1/1 80/1/1
f 90/2/1 80/2/1 89/2/1
f 91/2/1 82/2/1 81/2/1
f 91/1/1 81/1/1 90/1/1
f 92/1/1 2/1/1 82/1/1
f 92/2/1 82/2/1 91/2/1
f 93/1/1 87/1/1 86/1/1
f 93/1/1 89/1/1 88/1/1
f 93/1/1 92/1/1 91/1/1
f 93/1/1 86/1/1 85/1/1
f 93/1/1 85/1/1 84/1/1
f 93/1/1 84/1/1 83/1/1
f 93/1/1 83/1/1 1/1/1
f 93/1/1 90/1/1 89/1/1
f 93/1/1 91/1/1 90/1/1
f 93/1/1 88/1/1 87/1/1
f 94/1/1 2/1/1 92/1/1
f 94/1/1 92/1/1 93/1/1
f 95/1/2 96/1/2 99/1/2
f 99/1/2 96/1/2 100/1/2
f 100/1/2 96/1/2 101/1/2
f 101/1/2 96/1/2 102/1/2
f 97/1/2 98/1/2 103/1/2
f 103/1/2 98/1/2 104/1/2
f 104/1/2 98/1/2 105/1/2
f 105/1/2 98/1/2 106/1/2
f 95/1/2 99/1/2 107/1/2
f 99/5/2 100/5/2 107/5/2
f 100/1/2 101/1/2 108/1/2
f 107/5/2 100/5/2 108/5/2
f 101/5/2 102/5/2 109/5/2
f 108/1/2 101/1/2 109/1/2
f 102/1/2 96/1/2 110/1/2
f 109/5/2 102/5/2 110/5/2
f 97/1/2 103/1/2 111/1/2
f 103/5/2 104/5/2 111/5/2
f 104/1/2 105/1/2 112/1/2
f 111/5/2 104/5/2 112/5/2
f 105/5/2 106/5/2 113/5/2
f 112/1/2 105/1/2 113/1/2
f 106/1/2 98/1/2 114/1/2
f 113/5/2 106/5/2 114/5/2
f 96/4/2 97/4/2 115/4/2
f 110/1/2 96/1/2 115/1/2
f 97/1/2 111/1/2 116/1/2
f 115/4/2 97/4/2 116/4/2
f 95/1/2 107/1/2 117/1/2
f 107/2/2 108/2/2 117/2/2
f 108/1/2 109/1/2 118/1/2
f 117/2/2 108/2/2 118/2/2
f 109/2/2 110/2/2 119/2/2
f 118/1/2 109/1/2 119/1/2
f 110/1/2 115/1/2 120/1/2
f 119/2/2 110/2/2 120/2/2
f 115/3/2 116/3/2 121/3/2
f 120/1/2 115/1/2 121/1/2
f 116/1/2 111/1/2 122/1/2
f 121/3/2 116/3/2 122/3/2
f 111/2/2 112/2/2 123/2/2
f 122/1/2 111/1/2 123/1/2
f 112/1/2 113/1/2 124/1/2
f 123/2/2 112/2/2 124/2/2
f 113/2/2 114/2/2 125/2/2
f 124/1/2 113/1/2 125/1/2
f 114/1/2 98/1/2 126/1/2
f 125/2/2 114/2/2 126/2/2
f 95/1/2 117/1/2 127/1/2
f 124/1/2 125/1/2 127/1/2
f 125/1/2 126/1/2 127/1/2
f 118/1/2 119/1/2 127/1/2
f 117/1/2 118/1/2 127/1/2
f 123/1/2 124/1/2 127/1/2
f 119/1/2 120/1/2 127/1/2
f 120/1/2 121/1/2 127/1/2
f 121/1/2 122/1/2 127/1/2
f 122/1/2 123/1/2 127/1/2
f 127/1/2 126/1/2 128/1/2
f 128/1/2 126/1/2 129/1/2
f 129/1/2 126/1/2 130/1/2
f 130/1/2 126/1/2 131/1/2
f 131/1/2 126/1/2 132/1/2
f 132/1/2 126/1/2 133/1/2
f 133/1/2 126/1/2 134/1/2
f 134/1/2 126/1/2 135/1/2
f 126/1/2 98/1/2 136/1/2
f 135/1/2 126/1/2 136/1/2
f 95/1/2 127/1/2 137/1/2
f 127/5/2 128/5/2 137/5/2
f 128/1/2 129/1/2 138/1/2
f 137/5/2 128/5/2 138/5/2
f 129/5/2 130/5/2 139/5/2
f 138/1/2 129/1/2 139/1/2
f 130/1/2 131/1/2 140/1/2
f 139/5/2 130/5/2 140/5/2
f 131/5/2 132/5/2 141/5/2
f 140/1/2 131/1/2 141/1/2
f 132/1/2 133/1/2 142/1/2
f 141/5/2 132/5/2 142/5/2
f 133/5/2 134/5/2 143/5/2
f 142/1/2 133/1/2 143/1/2
f 134/1/2 135/1/2 144/1/2
f 143/5/2 134/5/2 144/5/2
f 135/5/2 136/5/2 145/5/2
f 144/1/2 135/1/2 145/1/2
f 136/1/2 98/1/2 146/1/2
f 145/5/2 136/5/2 146/5/2
f 95/1/2 137/1/2 147/1/2
f 137/2/2 138/2/2 147/2/2
f 138/1/2 139/1/2 148/1/2
f 147/2/2 138/2/2 148/2/2
f 139/2/2 140/2/2 149/2/2
f 148/1/2 139/1/2 149/1/2
f 140/1/2 141/1/2 150/1/2
f 149/2/2 140/2/2 150/2/2
f 141/2/2 142/2/2 151/2/2
f 150/1/2 141/1/2 151/1/2
f 142/1/2 143/1/2 152/1/2
f 151/2/2 142/2/2 152/2/2
f 143/2/2 144/2/2 153/2/2
f 152/1/2 143/1/2 153/1/2
f 144/1/2 145/1/2 154/1/2
f 153/2/2 144/2/2 154/2/2
f 145/2/2 146/2/2 155/2/2
f 154/1/2 145/1/2 155/1/2
f 146/1/2 98/1/2 156/1/2
f 155/2/2 146/2/2 156/2/2
f 150/1/2 151/1/2 157/1/2
f 152/1/2 153/1/2 157/1/2
f 155/1/2 156/1/2 157/1/2
f 149/1/2 150/1/2 157/1/2
f 148/1/2 149/1/2 157/1/2
f 147/1/2 148/1/2 157/1/2
f 95/1/2 147/1/2 157/1/2
f 153/1/2 154/1/2 157/1/2
f 154/1/2 155/1/2 157/1/2
f 151/1/2 152/1/2 157/1/2
f 157/1/2 156/1/2 158/1/2
f 158/1/2 156/1/2 159/1/2
f 159/1/2 156/1/2 160/1/2
f 160/1/2 156/1/2 161/1/2
f 161/1/2 156/1/2 162/1/2
f 162/1/2 156/1/2 163/1/2
f 163/1/2 156/1/2 164/1/2
f 164/1/2 156/1/2 165/1/2
f 156/1/2 98/1/2 166/1/2
f 165/1/2 156/1/2 166/1/2
f 95/1/2 157/1/2 167/1/2
f 157/5/2 158/5/2 167/5/2
f 158/1/2 159/1/2 168/1/2
f 167/5/2 158/5/2 168/5/2
f 159/5/2 160/5/2 169/5/2
f 168/1/2 159/1/2 169/1/2
f 160/1/2 161/1/2 170/1/2
f 169/5/2 160/5/2 170/5/2
f 161/5/2 162/5/2 171/5/2
f 170/1/2 161/1/2 171/1/2
f 162/1/2 163/1/2 172/1/2
f 171/5/2 162/5/2 172/5/2
f 163/5/2 164/5/2 173/5/2
f 172/1/2 163/1/2 173/1/2
f 164/1/2 165/1/2 174/1/2
f 173/5/2 164/5/2 174/5/2
f 165/5/2 166/5/2 175/5/2
f 174/1/2 165/1/2 175/1/2
f 166/1/2 98/1/2 176/1/2
f 175/5/2 166/5/2 176/5/2
f 95/1/2 167/1/2 177/1/2
f 167/2/2 168/2/2 177/2/2
f 168/1/2 169/1/2 178/1/2
f 177/2/2 168/2/2 178/2/2
f 169/2/2 170/2/2 179/2/2
f 178/1/2 169/1/2 179/1/2
f 170/1/2 171/1/2 180/1/2
f 179/2/2 170/2/2 180/2/2
f 171/2/2 172/2/2 181/2/2
f 180/1/2 171/1/2 181/1/2
f 172/1/2 173/1/2 182/1/2
f 181/2/2 172/2/2 182/2/2
f 173/2/2 174/2/2 183/2/2
f 182/1/2 173/1/2 183/1/2
f 174/1/2 175/1/2 184/1/2
f 183/2/2 174/2/2 184/2/2
f 175/2/2 176/2/2 185/2/2
f 184/1/2 175/1/2 185/1/2
f 176/1/2 98/1/2 186/1/2
f 185/2/2 176/2/2 186/2/2
f 180/1/2 181/1/2 187/1/2
f 182/1/2 183/1/2 187/1/2
f 185/1/2 186/1/2 187/1/2
f 179/1/2 180/1/2 187/1/2
f 178/1/2 179/1/2 187/1/2
f 177/1/2 178/1/2 187/1/2
f 95/1/2 177/1/2 187/1/2
f 183/1/2 184/1/2 187/1/2
f 184/1/2 185/1/2 187/1/2
f 181/1/2 182/1/2 187/1/2
f 186/1/2 98/1/2 188/1/2
f 187/1/2 186/1/2 188/1/2
f 191/1/3 190/1/3 189/1/3
f 192/1/3 190/1/3 191/1/3
f 193/1/3 190/1/3 192/1/3
f 194/1/3 190/1/3 193/1/3
f 195/1/3 190/1/3 194/1/3
f 196/1/3 190/1/3 195/1/3
f 197/1/3 190/1/3 196/1/3
f 198/1/3 190/1/3 197/1/3
f 199/1/3 190/1/3 198/1/3
f 200/1/3 191/1/3 189/1/3
f 200/5/3 192/5/3 191/5/3
f 201/2/3 193/2/3 192/2/3
f 201/5/3 192/5/3 200/5/3
f 202/1/3 194/1/3 193/1/3
f 202/2/3 193/2/3 201/2/3
f 203/5/3 195/5/3 194/5/3
f 203/1/3 194/1/3 202/1/3
f 204/2/3 196/2/3 195/2/3
f 204/5/3 195/5/3 203/5/3
f 205/1/3 197/1/3 196/1/3
f 205/2/3 196/2/3 204/2/3
f 206/5/3 198/5/3 197/5/3
f 206/1/3 197/1/3 205/1/3
f 207/2/3 199/2/3 198/2/3
f 207/5/3 198/5/3 206/5/3
f 208/1/3 190/1/3 199/1/3
f 208/2/3 199/2/3 207/2/3
f 209/1/3 207/1/3 206/1/3
f 209/1/3 206/1/3 205/1/3
f 209/1/3 208/1/3 207/1/3
f 209/1/3 205/1/3 204/1/3
f 209/1/3 204/1/3 203/1/3
f 209/1/3 203/1/3 202/1/3
f 209/1/3 202/1/3 201/1/3
f 209/1/3 201/1/3 200/1/3
f 209/1/3 200/1/3 189/1/3
f 210/1/3 208/1/3 209/1/3
f 211/1/3 208/1/3 210/1/3
f 212/1/3 208/1/3 211/1/3
f 213/1/3 208/1/3 212/1/3
f 214/1/3 208/1/3 213/1/3
f 215/1/3 208/1/3 214/1/3
f 216/1/3 208/1/3 215/1/3
f 217/1/3 190/1/3 208/1/3
f 217/1/3 208/1/3 216/1/3
f 218/1/3 209/1/3 189/1/3
f 218/5/3 210/5/3 209/5/3
f 219/2/3 211/2/3 210/2/3
f 219/5/3 210/5/3 218/5/3
f 220/1/3 212/1/3 211/1/3
f 220/2/3 211/2/3 219/2/3
f 221/5/3 213/5/3 212/5/3
f 221/1/3 212/1/3 220/1/3
f 222/2/3 214/2/3 213/2/3
f 222/5/3 213/5/3 221/5/3
f 223/1/3 215/1/3 214/1/3
f 223/2/3 214/2/3 222/2/3
f 224/5/3 216/5/3 215/5/3
f 224/1/3 215/1/3 223/1/3
f 225/2/3 217/2/3 216/2/3
f 225/5/3 216/5/3 224/5/3
f 226/1/3 190/1/3 217/1/3
f 226/2/3 217/2/3 225/2/3
f 227/1/3 223/1/3 222/1/3
f 227/1/3 225/1/3 224/1/3
f 227/1/3 226/1/3 225/1/3
f 227/1/3 222/1/3 221/1/3
f 227/1/3 221/1/3 220/1/3
f 227/1/3 220/1/3 219/1/3
f 227/1/3 219/1/3 218/1/3
f 227/1/3 218/1/3 189/1/3
f 227/1/3 224/1/3 223/1/3
f 228/1/3 226/1/3 227/1/3
f 229/1/3 226/1/3 228/1/3
f 230/1/3 226/1/3 229/1/3
f 231/1/3 226/1/3 230/1/3
f 232/1/3 226/1/3 231/1/3
f 233/1/3 226/1/3 232/1/3
f 234/1/3 226/1/3 233/1/3
f 235/1/3 190/1/3 226/1/3
f 235/1/3 226/1/3 234/1/3
f 236/1/3 227/1/3 189/1/3
f 236/5/3 228/5/3 227/5/3
f 237/2/3 229/2/3 228/2/3
f 237/5/3 228/5/3 236/5/3
f 238/1/3 230/1/3 229/1/3
f 238/2/3 229/2/3 237/2/3
f 239/5/3 231/5/3 230/5/3
f 239/1/3 230/1/3 238/1/3
f 240/2/3 232/2/3 231/2/3
f 240/5/3 231/5/3 239/5/3
f 241/1/3 233/1/3 232/1/3
f 241/2/3 232/2/3 240/2/3
f 242/5/3 234/5/3 233/5/3
f 242/1/3 233/1/3 241/1/3
f 243/2/3 235/2/3 234/2/3
f 243/5/3 234/5/3 242/5/3
f 244/1/3 190/1/3 235/1/3
f 244/2/3 235/2/3 243/2/3
f 245/1/3 241/1/3 240/1/3
f 245/1/3 243/1/3 242/1/3
f 245/1/3 244/1/3 243/1/3
f 245/1/3 240/1/3 239/1/3
f 245/1/3 239/1/3 238/1/3
f 245/1/3 238/1/3 237/1/3
f 245/1/3 237/1/3 236/1/3
f 245/1/3 236/1/3 189/1/3
f 245/1/3 242/1/3 241/1/3
f 246/1/3 244/1/3 245/1/3
f 247/1/3 244/1/3 246/1/3
f 248/1/3 244/1/3 247/1/3
f 249/1/3 244/1/3 248/1/3
f 250/1/3 244/1/3 249/1/3
f 251/1/3 244/1/3 250/1/3
f 252/1/3 244/1/3 251/1/3
f 253/1/3 190/1/3 244/1/3
f 253/1/3 244/1/3 252/1/3
f 254/1/3 245/1/3 189/1/3
f 254/5/3 246/5/3 245/5/3
f 255/2/3 247/2/3 246/2/3
f 255/5/3 246/5/3 254/5/3
f 256/1/3 248/1/3 247/1/3
f 256/2/3 247/2/3 255/2/3
f 257/5/3 249/5/3 248/5/3
f 257/1/3 248/1/3 256/1/3
f 258/2/3 250/2/3 249/2/3
f 258/5/3 249/5/3 257/5/3
f 259/1/3 251/1/3 250/1/3
f 259/2/3 250/2/3 258/2/3
f 260/5/3 252/5/3 251/5/3
f 260/1/3 251/1/3 259/1/3
f 261/2/3 253/2/3 252/2/3
f 261/5/3 252/5/3 260/5/3
f 262/1/3 190/1/3 253/1/3
f 262/2/3 253/2/3 261/2/3
f 263/1/3 259/1/3 258/1/3
f 263/1/3 261/1/3 260/1/3
f 263/1/3 262/1/3 261/1/3
f 263/1/3 258/1/3 257/1/3
f 263/1/3 257/1/3 256/1/3
f 263/1/3 256/1/3 255/1/3
f 263/1/3 255/1/3 254/1/3
f 263/1/3 254/1/3 189/1/3
f 263/1/3 260/1/3 259/1/3
f 264/1/3 262/1/3 263/1/3
f 265/1/3 262/1/3 264/1/3
f 266/1/3 262/1/3 265/1/3
f 267/1/3 262/1/3 266/1/3
f 268/1/3 262/1/3 267/1/3
f 269/1/3 262/1/3 268/1/3
f 270/1/3 262/1/3 269/1/3
f 271/1/3 190/1/3 262/1/3
f 271/1/3 262/1/3 270/1/3
f 272/1/3 263/1/3 189/1/3
f 272/5/3 264/5/3 263/5/3
f 273/2/3 265/2/3 264/2/3
f 273/5/3 264/5/3 272/5/3
f 274/1/3 266/1/3 265/1/3
f 274/2/3 265/2/3 273/2/3
f 275/5/3 267/5/3 266/5/3
f 275/1/3 266/1/3 274/1/3
f 276/2/3 268/2/3 267/2/3
f 276/5/3 267/5/3 275/5/3
f 277/1/3 269/1/3 268/1/3
f 277/2/3 268/2/3 276/2/3
f 278/5/3 270/5/3 269/5/3
f 278/1/3 269/1/3 277/1/3
f 279/2/3 271/2/3 270/2/3
f 279/5/3 270/5/3 278/5/3
f 280/1/3 190/1/3 271/1/3
f 280/2/3 271/2/3 279/2/3
f 281/1/3 277/1/3 276/1/3
f 281/1/3 279/1/3 278/1/3
f 281/1/3 280/1/3 279/1/3
f 281/1/3 276/1/3 275/1/3
f 281/1/3 275/1/3 274/1/3
f 281/1/3 274/1/3 273/1/3
f 281/1/3 273/1/3 272/1/3
f 281/1/3 272/1/3 189/1/3
f 281/1/3 278/1/3 277/1/3
f 282/1/3 190/1/3 280/1/3
f 282/1/3 280/1/3 281/1/3
f 283/1/4 284/1/4 285/1/4
f 285/1/4 284/1/4 286/1/4
f 286/1/4 284/1/4 287/1/4
f 287/1/4 284/1/4 288/1/4
f 288/1/4 284/1/4 289/1/4
f 289/1/4 284/1/4 290/1/4
f 290/1/4 284/1/4 291/1/4
f 291/1/4 284/1/4 292/1/4
f 292/1/4 284/1/4 293/1/4
f 283/1/4 285/1/4 294/1/4
f 285/5/4 286/5/4 294/5/4
f 286/2/4 287/2/4 295/2/4
f 294/5/4 286/5/4 295/5/4
f 287/1/4 288/1/4 296/1/4
f 295/2/4 287/2/4 296/2/4
f 288/5/4 289/5/4 297/5/4
f 296/1/4 288/1/4 297/1/4
f 289/2/4 290/2/4 298/2/4
f 297/5/4 289/5/4 298/5/4
f 290/1/4 291/1/4 299/1/4
f 298/2/4 290/2/4 299/2/4
f 291/5/4 292/5/4 300/5/4
f 299/1/4 291/1/4 300/1/4
f 292/2/4 293/2/4 301/2/4
f 300/5/4 292/5/4 301/5/4
f 293/1/4 284/1/4 302/1/4
f 301/2/4 293/2/4 302/2/4
f 300/1/4 301/1/4 303/1/4
f 299/1/4 300/1/4 303/1/4
f 301/1/4 302/1/4 303/1/4
f 298/1/4 299/1/4 303/1/4
f 297/1/4 298/1/4 303/1/4
f 296/1/4 297/1/4 303/1/4
f 295/1/4 296/1/4 303/1/4
f 294/1/4 295/1/4 303/1/4
f 283/1/4 294/1/4 303/1/4
f 303/1/4 302/1/4 304/1/4
f 304/1/4 302/1/4 305/1/4
f 305/1/4 302/1/4 306/1/4
f 306/1/4 302/1/4 307/1/4
f 307/1/4 302/1/4 308/1/4
f 308/1/4 302/1/4 309/1/4
f 309/1/4 302/1/4 310/1/4
f 302/1/4 284/1/4 311/1/4
f 310/1/4 302/1/4 311/1/4
f 283/1/4 303/1/4 312/1/4
f 303/5/4 304/5/4 312/5/4
f 304/2/4 305/2/4 313/2/4
f 312/5/4 304/5/4 313/5/4
f 305/1/4 306/1/4 314/1/4
f 313/2/4 305/2/4 314/2/4
f 306/5/4 307/5/4 315/5/4
f 314/1/4 306/1/4 315/1/4
f 307/2/4 308/2/4 316/2/4
f 315/5/4 307/5/4 316/5/4
f 308/1/4 309/1/4 317/1/4
f 316/2/4 308/2/4 317/2/4
f 309/5/4 310/5/4 318/5/4
f 317/1/4 309/1/4 318/1/4
f 310/2/4 311/2/4 319/2/4
f 318/5/4 310/5/4 319/5/4
f 311/1/4 284/1/4 320/1/4
f 319/2/4 311/2/4 320/2/4
f 316/1/4 317/1/4 321/1/4
f 318/1/4 319/1/4 321/1/4
f 319/1/4 320/1/4 321/1/4
f 315/1/4 316/1/4 321/1/4
f 314/1/4 315/1/4 321/1/4
f 313/1/4 314/1/4 321/1/4
f 312/1/4 313/1/4 321/1/4
f 283/1/4 312/1/4 321/1/4
f 317/1/4 318/1/4 321/1/4
f 321/1/4 320/1/4 322/1/4
f 322/1/4 320/1/4 323/1/4
f 323/1/4 320/1/4 324/1/4
f 324/1/4 320/1/4 325/1/4
f 325/1/4 320/1/4 326/1/4
f 326/1/4 320/1/4 327/1/4
f 327/1/4 320/1/4 328/1/4
f 320/1/4 284/1/4 329/1/4
f 328/1/4 320/1/4 329/1/4
f 283/1/4 321/1/4 330/1/4
f 321/5/4 322/5/4 330/5/4
f 322/2/4 323/2/4 331/2/4
f 330/5/4 322/5/4 331/5/4
f 323/1/4 324/1/4 332/1/4
f 331/2/4 323/2/4 332/2/4
f 324/5/4 325/5/4 333/5/4
f 332/1/4 324/1/4 333/1/4
f 325/2/4 326/2/4 334/2/4
f 333/5/4 325/5/4 334/5/4
f 326/1/4 327/1/4 335/1/4
f 334/2/4 326/2/4 335/2/4
f 327/5/4 328/5/4 336/5/4
f 335/1/4 327/1/4 336/1/4
f 328/2/4 329/2/4 337/2/4
f 336/5/4 328/5/4 337/5/4
f 329/1/4 284/1/4 338/1/4
f 337/2/4 329/2/4 338/2/4
f 334/1/4 335/1/4 339/1/4
f 336/1/4 337/1/4 339/1/4
f 337/1/4 338/1/4 339/1/4
f 333/1/4 334/1/4 339/1/4
f 332/1/4 333/1/4 339/1/4
f 331/1/4 332/1/4 339/1/4
f 330/1/4 331/1/4 339/1/4
f 283/1/4 330/1/4 339/1/4
f 335/1/4 336/1/4 339/1/4
f 339/1/4 338/1/4 340/1/4
f 340/1/4 338/1/4 341/1/4
f 341/1/4 338/1/4 342/1/4
f 342/1/4 338/1/4 343/1/4
f 343/1/4 338/1/4 344/1/4
f 344/1/4 338/1/4 345/1/4
f 345/1/4 338/1/4 346/1/4
f 338/1/4 284/1/4 347/1/4
f 346/1/4 338/1/4 347/1/4
f 283/1/4 339/1/4 348/1/4
f 339/5/4 340/5/4 348/5/4
f 340/2/4 341/2/4 349/2/4
f 348/5/4 340/5/4 349/5/4
f 341/1/4 342/1/4 350/1/4
f 349/2/4 341/2/4 350/2/4
f 342/5/4 343/5/4 351/5/4
f 350/1/4 342/1/4 351/1/4
f 343/2/4 344/2/4 352/2/4
f 351/5/4 343/5/4 352/5/4
f 344/1/4 345/1/4 353/1/4
f 352/2/4 344/2/4 353/2/4
f 345/5/4 346/5/4 354/5/4
f 353/1/4 345/1/4 354/1/4
f 346/2/4 347/2/4 355/2/4
f 354/5/4 346/5/4 355/5/4
f 347/1/4 284/1/4 356/1/4
f 355/2/4 347/2/4 356/2/4
f 352/1/4 353/1/4 357/1/4
f 354/1/4 355/1/4 357/1/4
f 355/1/4 356/1/4 357/1/4
f 351/1/4 352/1/4 357/1/4
f 350/1/4 351/1/4 357/1/4
f 349/1/4 350/1/4 357/1/4
f 348/1/4 349/1/4 357/1/4
f 283/1/4 348/1/4 357/1/4
f 353/1/4 354/1/4 357/1/4
f 357/1/4 356/1/4 358/1/4
f 358/1/4 356/1/4 359/1/4
f 359/1/4 356/1/4 360/1/4
f 360/1/4 356/1/4 361/1/4
f 361/1/4 356/1/4 362/1/4
f 362/1/4 356/1/4 363/1/4
f 363/1/4 356/1/4 364/1/4
f 356/1/4 284/1/4 365/1/4
f 364/1/4 356/1/4 365/1/4
f 283/1/4 357/1/4 366/1/4
f 357/5/4 358/5/4 366/5/4
f 358/2/4 359/2/4 367/2/4
f 366/5/4 358/5/4 367/5/4
f 359/1/4 360/1/4 368/1/4
f 367/2/4 359/2/4 368/2/4
f 360/5/4 361/5/4 369/5/4
f 368/1/4 360/1/4 369/1/4
f 361/2/4 362/2/4 370/2/4
f 369/5/4 361/5/4 370/5/4
f 362/1/4 363/1/4 371/1/4
f 370/2/4 362/2/4 371/2/4
f 363/5/4 364/5/4 372/5/4
f 371/1/4 363/1/4 372/1/4
f 364/2/4 365/2/4 373/2/4
f 372/5/4 364/5/4 373/5/4
f 365/1/4 284/1/4 374/1/4
f 373/2/4 365/2/4 374/2/4
f 370/1/4 371/1/4 375/1/4
f 372/1/4 373/1/4 375/1/4
f 373/1/4 374/1/4 375/1/4
f 369/1/4 370/1/4 375/1/4
f 368/1/4 369/1/4 375/1/4
f 367/1/4 368/1/4 375/1/4
f 366/1/4 367/1/4 375/1/4
f 283/1/4 366/1/4 375/1/4
f 371/1/4 372/1/4 375/1/4
f 374/1/4 284/1/4 376/1/4
f 375/1/4 374/1/4 376/1/4
f 379/1/5 378/1/5 377/1/5
f 380/1/5 378/1/5 379/1/5
f 381/1/5 379/1/5 377/1/5
f 381/4/5 380/4/5 379/4/5
f 382/4/5 380/4/5 381/4/5
f 383/1/5 381/1/5 377/1/5
f 383/1/5 382/1/5 381/1/5
f 384/1/5 382/1/5 383/1/5
f 385/1/6 386/1/6 387/1/6
f 387/1/6 386/1/6 388/1/6
